{"title":"Star Wars:Attack of the Clones.2002.1080p.BluRay.5.1.x264 . NVEE","uid":14673821,"size":3241479657,"categoryP":"video","categoryS":"hd___movies","magnet":"?xt=urn:btih:f3ed88693bd94aa1b41951c428af93684448e339&amp;dn=Star+Wars%3AAttack+of+the+Clones.2002.1080p.BluRay.5.1.x264+.+NVEE&amp;tr=udp%3A%2F%2Ftracker.leechers-paradise.org%3A6969&amp;tr=udp%3A%2F%2Fzer0day.ch%3A1337&amp;tr=udp%3A%2F%2Fopen.demonii.com%3A1337&amp;tr=udp%3A%2F%2Ftracker.coppersurfer.tk%3A6969&amp;tr=udp%3A%2F%2Fexodus.desync.com%3A6969","seeders":0,"leechers":1,"uploader":".NVEE","files":2,"time":1463910307,"description":"\nFULL_INFOs \r\n\r\n99.99% &gt;&gt;&gt; SYNCED GUARANTEED \r\n\r\n&quot;Totally scrutinized / analyzed to be a verified torrent.&quot; \r\n___________________________________________ \r\n\r\nSource : Blu-ray ~ 1080p \r\n\r\n \r\n\r\nSpoken Language : English \r\n\r\nAudio : 6 ~ Channels Only \r\n\r\n \r\nSubs Info : \r\n\r\nx 1 ~ English.srt \r\n\r\nAll .srt UTF-8 .idx &amp; .ass subs can be turned On/Off \r\n_____________________________________ \r\n--------------------------------------------------------------------------------- \r\n \r\nGeneral Metadata \r\n\r\nComplete name : Star Wars: Episode II - Attack of the Clones.2002.1080p.BluRay.5.1.x264 . NVEE.mp4 \r\nFormat : MPEG-4 \r\nFormat profile : Base Media \r\nCodec ID : isom (isom/avc1) \r\nFile size : 3.02 GiB \r\nDuration : 2h 22mn \r\nOverall bit rate : 3 034 Kbps \r\nEncoded date : UTC 2016-05-16 10:39:43 \r\nTagged date : UTC 2016-05-16 10:39:43 \r\n\r\n \r\nVideo \r\n\r\nID : 1 \r\nFormat : AVC \r\nFormat/Info : Advanced Video Codec \r\nFormat profile :    \r\nFormat settings, CABAC : Yes \r\nFormat settings, ReFrames : 7 frames \r\nCodec ID : avc1 \r\nCodec ID/Info : Advanced Video Coding \r\nDuration : 2h 22mn \r\nBit rate : 2 392 Kbps \r\nMaximum bit rate : 12.3 Mbps \r\nWidth : 1 920 pixels \r\nHeight : 1 080 pixels \r\nDisplay aspect ratio : 16:9 \r\nFrame rate mode : Constant \r\nFrame rate : 23.976 (24000/1001) fps \r\nColor space : YUV \r\nChroma subsampling : 4:2:0 \r\nBit depth : 8 bits \r\nScan type : Progressive \r\nBits/(Pixel*Frame) : 0.048 \r\nStream size : 2.38 GiB (79%) \r\nWriting library : x264 core 148 r2692 64f4e24 \r\n\r\nEncoded from Physical Blu-ray / Region B \r\n\r\n \r\nAudio \r\n\r\nID : 2 \r\nFormat : AC-3 \r\nFormat/Info : Audio Coding 3 \r\nMode extension : CM (complete main) \r\nFormat settings, Endianness : Big \r\nCodec ID : ac-3 \r\nDuration : 2h 22mn \r\nBit rate mode : Constant \r\nBit rate : 640 Kbps \r\nMaximum bit rate : 676 Kbps \r\nChannel(s) : 6 channels \r\nChannel positions : Front: L C R, Side: L R, LFE \r\nSampling rate : 48.0 KHz \r\nFrame rate : 31.250 fps (1536 spf) \r\nBit depth : 16 bits \r\nCompression mode : Lossy \r\nStream size : 652 MiB (21%) \r\nLanguage : English \r\nEncoded date : UTC 2016-05-16 10:53:37 \r\nTagged date : UTC 2016-05-16 10:57:16 \r\n\r\nEncoded from Physical Blu-ray 6 Channel audio &quot;Only&quot;. \r\n\r\n \r\n\r\n \r\n\r\n \r\n\r\n\r\n\r\n\r\nEnj0y !","torrent":{"xt":"urn:btih:f3ed88693bd94aa1b41951c428af93684448e339","amp;dn":"Star+Wars%3AAttack+of+the+Clones.2002.1080p.BluRay.5.1.x264+.+NVEE","amp;tr":["udp%3A%2F%2Ftracker.leechers-paradise.org%3A6969","udp%3A%2F%2Fzer0day.ch%3A1337","udp%3A%2F%2Fopen.demonii.com%3A1337","udp%3A%2F%2Ftracker.coppersurfer.tk%3A6969","udp%3A%2F%2Fexodus.desync.com%3A6969"],"infoHash":"f3ed88693bd94aa1b41951c428af93684448e339","infoHashBuffer":{"type":"Buffer","data":[243,237,136,105,59,217,74,161,180,25,81,196,40,175,147,104,68,72,227,57]},"announce":[],"urlList":[]}}